<svg width="71" height="71" viewBox="0 0 71 71" fill="none" xmlns="http://www.w3.org/2000/svg">
<path d="M8.87504 35.5C5.62087 35.5 2.95837 32.8375 2.95837 29.5833V14.7917C2.95837 11.5375 5.62087 8.875 8.87504 8.875H32.5417C35.7959 8.875 38.4584 11.5375 38.4584 14.7917V29.5833C38.4584 32.8375 35.7959 35.5 32.5417 35.5H26.625V44.375L17.75 35.5H8.87504ZM62.125 53.25C65.3792 53.25 68.0417 50.5875 68.0417 47.3333V32.5417C68.0417 29.2875 65.3792 26.625 62.125 26.625H44.375V29.5833C44.375 36.0917 39.05 41.4167 32.5417 41.4167V47.3333C32.5417 50.5875 35.2042 53.25 38.4584 53.25H44.375V62.125L53.25 53.25H62.125Z" fill="#F8F8F8"/>
</svg>
