<svg xmlns="http://www.w3.org/2000/svg" width="76.86" height="76.86" viewBox="0 0 76.86 76.86">
  <g id="Group_1703" data-name="Group 1703" transform="translate(-3869.148 3933.764)">
    <circle id="Ellipse_63" data-name="Ellipse 63" cx="38.43" cy="38.43" r="38.43" transform="translate(3869.148 -3933.764)" fill="#fff"/>
    <g id="Group_1702" data-name="Group 1702" transform="translate(3881.718 -3921.163)">
      <path id="Path_994" data-name="Path 994" d="M4046.048-3768.437h-.781c-3.222,0-6.445.005-9.667-.009a.7.7,0,0,0-.749.462,2.96,2.96,0,0,1-3.353,1.656,3.1,3.1,0,0,1-2.435-2.955,3.037,3.037,0,0,1,2.349-3.007,2.988,2.988,0,0,1,3.488,1.729.541.541,0,0,0,.591.379q7.172-.013,14.343-.007c.5,0,.5,0,.5-.507,0-.773.013-1.546-.009-2.319-.009-.309.084-.411.4-.406.9.017,1.807.01,2.71,0,1.624-.011,3.248-.031,4.872-.043.51,0,.537.028.538.529,0,.773.012,1.546,0,2.319-.006.326.116.429.438.428q7.565-.011,15.129,0a.465.465,0,0,0,.5-.328,3,3,0,0,1,3.652-1.743,3.064,3.064,0,0,1,2.2,3.151,3.028,3.028,0,0,1-2.941,2.84,2.88,2.88,0,0,1-2.821-1.707.73.73,0,0,0-.781-.475c-3.1.014-6.209.006-9.314.01a1,1,0,0,0-.521.055c.614.311,1.215.589,1.792.911a22.639,22.639,0,0,1,11.546,15.584,7.484,7.484,0,0,1,.159.888c.033.352.176.509.549.488.47-.027.943,0,1.415-.009.25,0,.339.091.339.349.006,1.65.017,3.3.05,4.949.008.387-.122.482-.5.478q-2.456-.026-4.912.006c-.341,0-.42-.116-.418-.429q.013-2.436-.007-4.873c0-.355.119-.5.478-.482.313.019.629-.007.942.007.281.012.363-.08.315-.369a20.139,20.139,0,0,0-1.1-4.01,21,21,0,0,0-9.141-10.738,21.173,21.173,0,0,0-6.514-2.458c-.534-.111-.538-.1-.537.466,0,.773,0,1.546.007,2.319,0,.3-.1.421-.41.42q-3.851-.01-7.7,0c-.314,0-.409-.127-.4-.423.012-.707,0-1.415,0-2.122,0-.468-.019-.484-.467-.369a20.676,20.676,0,0,0-7.94,3.995,20.9,20.9,0,0,0-6.507,9,22.167,22.167,0,0,0-1.053,3.86c-.058.314.031.44.353.428.366-.014.733.007,1.1-.006.291-.011.392.115.391.4q-.007,2.475.009,4.951c0,.332-.132.425-.445.424q-2.515-.011-5.03.01c-.241,0-.312-.066-.309-.311.013-1.1.009-2.2,0-3.3,0-.576-.021-1.152-.044-1.727-.013-.316.111-.455.436-.443.405.016.814-.021,1.217.01.381.03.527-.112.582-.486a21.129,21.129,0,0,1,1.593-5.492,22.69,22.69,0,0,1,9.955-10.917c.615-.344,1.255-.635,1.892-.934Zm11.055-.718h-.006c0-.694-.015-1.388.006-2.081.01-.349-.091-.49-.464-.48-1.374.033-2.747.045-4.121.049-.324,0-.435.123-.432.442q.02,2.081.005,4.162c0,.325.114.433.436.43q2.081-.02,4.162,0c.335,0,.427-.125.419-.439C4057.091-3767.768,4057.1-3768.462,4057.1-3769.156Zm20.612,1.11a1.262,1.262,0,0,0,1.315-1.259,1.331,1.331,0,0,0-1.314-1.327,1.3,1.3,0,0,0-1.311,1.319A1.268,1.268,0,0,0,4077.714-3768.045Zm-45.576,0a1.269,1.269,0,0,0,1.3-1.282,1.3,1.3,0,0,0-1.3-1.3,1.347,1.347,0,0,0-1.33,1.32A1.278,1.278,0,0,0,4032.138-3768.045Zm45.175,19.281v0c-.275,0-.551.007-.825,0-.236-.009-.327.095-.323.328.009.536.008,1.073,0,1.61,0,.239.111.326.336.324q.825-.006,1.65,0c.232,0,.33-.1.326-.333-.007-.537-.007-1.073,0-1.61,0-.236-.11-.328-.338-.322C4077.863-3748.758,4077.588-3748.763,4077.313-3748.763Zm-43.983,0c-.3,0-.6,0-.9,0-.181,0-.259.076-.254.261.014.549.025,1.1.027,1.646,0,.248.108.357.355.354.366-.005.732,0,1.1,0,.918,0,.8.058.812-.79,0-.118,0-.235,0-.353C4034.466-3748.764,4034.466-3748.764,4033.33-3748.76Z" transform="translate(-4029.063 3773.46)"/>
      <path id="Path_995" data-name="Path 995" d="M4210-3601.937h-7.74c-.545,0-.55-.005-.55-.546q0-3.477,0-6.955c0-.535,0-.535.555-.537,1.174,0,1.174,0,1.174-1.163,0-.432.005-.865,0-1.3,0-.219.08-.307.3-.3.262.012.524,0,.786,0,.191,0,.253-.081.2-.273a14.365,14.365,0,0,0-4.508-7.959,20.987,20.987,0,0,0-2.309-1.76.464.464,0,0,1-.2-.725c.887-1.781,1.758-3.571,2.629-5.361q3.018-6.2,6.031-12.4c.658-1.354,1.324-2.7,1.971-4.064a.573.573,0,0,1,.607-.374c.772.017,1.546.014,2.318,0a.521.521,0,0,1,.541.347q2.955,6.1,5.927,12.186,2.381,4.891,4.765,9.782c.14.287.043.412-.187.566a18.179,18.179,0,0,0-4.068,3.549,14.568,14.568,0,0,0-2.415,4.817c-.138.423-.244.856-.369,1.283-.079.272.011.4.3.384.2-.01.395.018.588-.006.329-.041.405.116.4.408-.012.655.005,1.31-.006,1.965-.005.286.1.4.391.39.34-.016.681,0,1.021,0a.271.271,0,0,1,.316.306c0,.209,0,.419,0,.629q0,3.222,0,6.444c0,.644-.007.657-.659.658Q4213.911-3601.935,4210-3601.937Zm1.021-40.954-.075.007v.463c0,3.891.014,7.781-.015,11.672a1.076,1.076,0,0,0,.694,1.19,3.156,3.156,0,0,1,1.478,4,3.277,3.277,0,0,1-3.774,1.968,3.257,3.257,0,0,1-2.488-2.821,3.175,3.175,0,0,1,1.87-3.25.735.735,0,0,0,.488-.8c-.012-3.969-.007-7.939-.007-11.908v-.443c-.432.708-.78,1.424-1.128,2.14q-2.019,4.151-4.038,8.3c-.86,1.766-1.728,3.528-2.588,5.294-.517,1.059-1.023,2.124-1.543,3.181a.353.353,0,0,0,.137.525c.279.193.541.413.8.633a14.988,14.988,0,0,1,3.538,4.016,20.28,20.28,0,0,1,2.089,5.488c.091.4.246.522.65.518q2.966-.029,5.933,0c.408,0,.566-.143.658-.534a19.325,19.325,0,0,1,2.4-5.989,16.174,16.174,0,0,1,3.946-4.067.463.463,0,0,0,.172-.688c-.358-.684-.677-1.388-1.016-2.083q-2-4.114-4.012-8.226Q4213.106-3638.6,4211.024-3642.891Zm-.952,39.2c2.069,0,4.138-.006,6.208.007.339,0,.458-.093.454-.444q-.028-1.827,0-3.654c0-.349-.121-.45-.457-.449q-6.17.013-12.338,0c-.355,0-.485.113-.48.475q.026,1.787,0,3.576c-.005.371.1.5.488.5C4205.987-3603.7,4208.03-3603.688,4210.072-3603.688Zm-.006-6.286q2.24,0,4.479,0c.139,0,.333.06.4-.089a1.129,1.129,0,0,0,.016-.769c-.062-.209-.287-.142-.447-.142-2.947,0-5.894,0-8.84-.01-.392,0-.485.154-.487.513s.085.512.482.507C4207.133-3609.986,4208.6-3609.974,4210.066-3609.974Zm-.037-15.3a1.45,1.45,0,0,0,1.529-1.4,1.459,1.459,0,0,0-1.452-1.568,1.5,1.5,0,0,0-1.518,1.433A1.462,1.462,0,0,0,4210.03-3625.277Z" transform="translate(-4184.364 3655.69)"/>
    </g>
  </g>
</svg>
